<svg width="161" height="48" viewBox="0 0 161 48" fill="none" xmlns="http://www.w3.org/2000/svg">
<path fill-rule="evenodd" clip-rule="evenodd" d="M0 10.7616C0 4.81813 4.81813 0 10.7616 0H51.6117C57.5552 0 62.3733 4.81813 62.3733 10.7616C62.3733 16.7051 57.5552 21.5232 51.6117 21.5232H35.64C34.2721 21.5232 33.1632 22.6321 33.1632 24C33.1632 25.3679 34.2721 26.4768 35.64 26.4768H150.003C155.947 26.4768 160.765 31.2949 160.765 37.2384C160.765 43.1819 155.947 48 150.003 48H10.7616C4.81817 48 4.88281e-05 43.1819 4.88281e-05 37.2384C4.88281e-05 31.2949 4.81818 26.4768 10.7616 26.4768H26.7332C28.1011 26.4768 29.21 25.3679 29.21 24C29.21 22.6321 28.1011 21.5232 26.7332 21.5232H10.7616C4.81813 21.5232 0 16.7051 0 10.7616ZM9.70996 10.3281V10.5503V11.5469V11.769L15.1943 14.0923V12.3721L11.5546 11.0558L15.1943 9.71875V8.00488L9.70996 10.3281ZM21.0532 8.13184H22.71V14.7715C22.71 15.3978 22.5703 15.9289 22.291 16.3647C22.016 16.8048 21.6309 17.137 21.1357 17.3613C20.6406 17.5898 20.0651 17.7041 19.4092 17.7041C19.1214 17.7041 18.8167 17.666 18.4951 17.5898C18.1777 17.5137 17.873 17.3952 17.5811 17.2344C17.2933 17.0736 17.0521 16.8704 16.8574 16.625L17.6636 15.5459C17.8752 15.7913 18.1206 15.9818 18.3999 16.1172C18.6792 16.2568 18.9881 16.3267 19.3267 16.3267C19.6567 16.3267 19.936 16.2653 20.1646 16.1426C20.3931 16.0241 20.5687 15.8485 20.6914 15.6157C20.8141 15.3872 20.8755 15.11 20.8755 14.7842V14.407C20.7067 14.5968 20.512 14.7522 20.2915 14.873C19.9868 15.0423 19.6229 15.127 19.1997 15.127C18.7765 15.127 18.3936 15.0402 18.0508 14.8667C17.7122 14.6932 17.4224 14.4499 17.1812 14.1367C16.9399 13.8236 16.7537 13.4554 16.6226 13.0322C16.4956 12.609 16.4321 12.1478 16.4321 11.6484V11.5151C16.4321 10.9904 16.4956 10.5143 16.6226 10.0869C16.7537 9.65527 16.9378 9.28499 17.1748 8.97607C17.416 8.66716 17.708 8.42806 18.0508 8.25879C18.3936 8.08952 18.7808 8.00488 19.2124 8.00488C19.6694 8.00488 20.0524 8.08952 20.3613 8.25879C20.6007 8.38997 20.8071 8.56435 20.9804 8.78194L21.0532 8.13184ZM20.8755 13.0521V10.0886C20.8425 10.0293 20.8065 9.97376 20.7676 9.92188C20.6533 9.76953 20.5052 9.65104 20.3232 9.56641C20.1413 9.48177 19.9255 9.43945 19.6758 9.43945C19.4346 9.43945 19.2251 9.49447 19.0474 9.60449C18.8739 9.71029 18.7279 9.85628 18.6094 10.0425C18.4951 10.2287 18.4084 10.4487 18.3491 10.7026C18.2899 10.9523 18.2603 11.2231 18.2603 11.5151V11.6484C18.2603 11.932 18.2878 12.1965 18.3428 12.4419C18.3978 12.6873 18.4824 12.9053 18.5967 13.0957C18.7152 13.2819 18.8612 13.4279 19.0347 13.5337C19.2124 13.6353 19.4219 13.686 19.6631 13.686C19.9974 13.686 20.2703 13.6162 20.4819 13.4766C20.6442 13.3662 20.7754 13.2247 20.8755 13.0521ZM27.8452 13.1021C27.8452 12.9709 27.8071 12.8524 27.731 12.7466C27.6548 12.6408 27.513 12.5435 27.3057 12.4546C27.1025 12.3615 26.8084 12.2769 26.4233 12.2007C26.0763 12.1245 25.7526 12.0293 25.4521 11.915C25.1559 11.7965 24.8978 11.6548 24.6777 11.4897C24.4619 11.3247 24.2926 11.13 24.1699 10.9058C24.0472 10.6772 23.9858 10.417 23.9858 10.125C23.9858 9.83724 24.0472 9.56641 24.1699 9.3125C24.2969 9.05859 24.4767 8.83431 24.7095 8.63965C24.9465 8.44075 25.2342 8.2863 25.5728 8.17627C25.9155 8.06201 26.3006 8.00488 26.728 8.00488C27.3247 8.00488 27.8368 8.1001 28.2642 8.29053C28.6958 8.48096 29.0259 8.74333 29.2544 9.07764C29.4871 9.40771 29.6035 9.78434 29.6035 10.2075H27.7754C27.7754 10.0298 27.7373 9.87109 27.6611 9.73145C27.5892 9.58757 27.4749 9.47542 27.3184 9.39502C27.166 9.31038 26.9671 9.26807 26.7217 9.26807C26.5186 9.26807 26.3429 9.30404 26.1948 9.37598C26.0467 9.44368 25.9325 9.53678 25.8521 9.65527C25.7759 9.76953 25.7378 9.89648 25.7378 10.0361C25.7378 10.1419 25.759 10.2371 25.8013 10.3218C25.8478 10.4022 25.9219 10.4762 26.0234 10.5439C26.125 10.6117 26.2562 10.6751 26.417 10.7344C26.582 10.7894 26.7852 10.8402 27.0264 10.8867C27.5215 10.9883 27.9637 11.1216 28.353 11.2866C28.7423 11.4474 29.0513 11.6675 29.2798 11.9468C29.5083 12.2218 29.6226 12.5837 29.6226 13.0322C29.6226 13.3369 29.5548 13.6162 29.4194 13.8701C29.284 14.124 29.0894 14.3462 28.8354 14.5366C28.5815 14.7228 28.2769 14.8688 27.9214 14.9746C27.5702 15.0762 27.1745 15.127 26.7344 15.127C26.0954 15.127 25.5537 15.0127 25.1094 14.7842C24.6693 14.5557 24.335 14.2658 24.1064 13.9146C23.8822 13.5591 23.77 13.1951 23.77 12.8228H25.5029C25.5114 13.0724 25.5749 13.2734 25.6934 13.4258C25.8161 13.5781 25.9705 13.6882 26.1567 13.7559C26.3472 13.8236 26.5524 13.8574 26.7725 13.8574C27.0094 13.8574 27.2062 13.8257 27.3628 13.7622C27.5194 13.6945 27.6379 13.6056 27.7183 13.4956C27.8029 13.3813 27.8452 13.2502 27.8452 13.1021ZM34.1738 8.13184V9.42676H32.9932V12.9307C32.9932 13.1296 33.0186 13.2819 33.0693 13.3877C33.1243 13.4935 33.2048 13.5675 33.3105 13.6099C33.4163 13.6479 33.5496 13.667 33.7104 13.667C33.8247 13.667 33.9263 13.6628 34.0151 13.6543C34.1082 13.6416 34.1865 13.6289 34.25 13.6162L34.2563 14.9619C34.0998 15.0127 33.9305 15.0529 33.7485 15.0825C33.5666 15.1121 33.3656 15.127 33.1455 15.127C32.7435 15.127 32.3923 15.0614 32.0918 14.9302C31.7956 14.7948 31.5671 14.5789 31.4062 14.2827C31.2454 13.9865 31.165 13.5972 31.165 13.1147V9.42676H30.1748V8.13184H31.165V6.43701H32.9932V8.13184H34.1738ZM36.9033 15H37.5127H38.0649H38.668L40.9849 8.13184H39.0742L37.7908 12.7951L36.5034 8.13184H34.5864L36.9033 15ZM45.752 5.75781L42.3623 15.7935H41.0039L44.3936 5.75781H45.752ZM52.2012 11.769V11.5532V10.5503V10.3281L46.6724 8.00488V9.7124L50.375 11.0352L46.6724 12.3848V14.0923L52.2012 11.769ZM9.77961 34.3H13.1096V43H15.1796V34.3H18.5096V32.5H9.77961V34.3ZM29.3463 32.5H27.2763V43H29.3463V32.5ZM40.7047 32.5H38.8597V43H40.8847V36.355L43.5547 41.095H44.1247C44.3247 41.095 44.4997 41.04 44.6497 40.93C44.8097 40.81 44.9647 40.615 45.1147 40.345L47.3197 36.355V43H49.3447V32.5H47.4997L44.1397 38.74L40.7047 32.5ZM59.1133 42.61C59.3833 42.87 59.7333 43 60.1633 43H66.7183V41.2H60.7783V38.53H66.2683V36.73H60.7783V34.3H66.7183V32.5H58.7083V41.59C58.7083 42.01 58.8433 42.35 59.1133 42.61ZM78.3723 42.04C78.6223 42.68 79.0373 43 79.6173 43H80.5923L84.6273 32.5H82.4823L79.7073 40.375H79.6773L76.9173 32.5H74.7573L78.3723 42.04ZM93.9605 40.555H97.8905L98.8055 43H100.966L97.2305 33.4C97.0005 32.8 96.5605 32.5 95.9105 32.5H94.9805L90.8705 43H93.0305L93.9605 40.555ZM97.3355 38.815H94.5155L95.9255 35.035H95.9405L97.3355 38.815ZM110.765 42.655C111.325 42.965 111.975 43.12 112.715 43.12H114.305C115.045 43.12 115.7 42.965 116.27 42.655C116.84 42.335 117.28 41.89 117.59 41.32C117.9 40.75 118.055 40.09 118.055 39.34V32.5H115.985V39.28C115.985 39.88 115.83 40.365 115.52 40.735C115.21 41.105 114.805 41.29 114.305 41.29H112.715C112.225 41.29 111.825 41.105 111.515 40.735C111.215 40.365 111.065 39.88 111.065 39.28V32.5H108.995V39.34C108.995 40.09 109.15 40.75 109.46 41.32C109.77 41.89 110.205 42.335 110.765 42.655ZM127.741 42.625C128.011 42.875 128.366 43 128.806 43H135.121V41.2H129.421V32.5H127.351V41.605C127.351 42.025 127.481 42.365 127.741 42.625ZM141.484 34.3H144.814V43H146.884V34.3H150.214V32.5H141.484V34.3Z" fill="url(#paint0_linear_1_2)"/>
<defs>
<linearGradient id="paint0_linear_1_2" x1="12.8968" y1="4.70915e-07" x2="200.883" y2="58.5056" gradientUnits="userSpaceOnUse">
<stop offset="0.251308" stop-color="#996DFF"/>
<stop offset="0.623787" stop-color="#FF876E"/>
<stop offset="1" stop-color="#FFD072"/>
</linearGradient>
</defs>
</svg>
