<svg width="215" height="64" viewBox="0 0 215 64" fill="none" xmlns="http://www.w3.org/2000/svg">
<path fill-rule="evenodd" clip-rule="evenodd" d="M65.594 14.3488C65.594 6.42416 72.0182 0 79.9428 0H134.409C142.334 0 148.758 6.42416 148.758 14.3488C148.758 22.2733 142.334 28.6975 134.409 28.6975H113.114C111.29 28.6975 109.812 30.1761 109.812 32C109.812 33.8239 111.29 35.3024 113.114 35.3024H200.004C207.929 35.3024 214.353 41.7266 214.353 49.6512C214.353 57.5758 207.929 63.9999 200.004 63.9999H14.3488C6.42418 63.9999 0 57.5758 0 49.6512C0 41.7266 6.42416 35.3024 14.3488 35.3024H101.238C103.062 35.3024 104.541 33.8239 104.541 32C104.541 30.1761 103.062 28.6975 101.238 28.6975H79.9428C72.0182 28.6975 65.594 22.2733 65.594 14.3488ZM77.5215 13.5312V13.8389V15.2188V15.5264L85.1152 18.7432V16.3613L80.0756 14.5388L85.1152 12.6875V10.3145L77.5215 13.5312ZM93.2275 10.4902H95.5215V19.6836C95.5215 20.5508 95.3281 21.2861 94.9414 21.8896C94.5605 22.499 94.0273 22.959 93.3418 23.2695C92.6562 23.5859 91.8594 23.7441 90.9512 23.7441C90.5527 23.7441 90.1309 23.6914 89.6855 23.5859C89.2461 23.4805 88.8242 23.3164 88.4199 23.0938C88.0215 22.8711 87.6875 22.5898 87.418 22.25L88.5342 20.7559C88.8271 21.0957 89.167 21.3594 89.5537 21.5469C89.9404 21.7402 90.3682 21.8369 90.8369 21.8369C91.2939 21.8369 91.6807 21.752 91.9971 21.582C92.3135 21.418 92.5566 21.1748 92.7266 20.8525C92.8965 20.5361 92.9814 20.1523 92.9814 19.7012V19.1789C92.7477 19.4418 92.4782 19.6569 92.1729 19.8242C91.751 20.0586 91.2471 20.1758 90.6611 20.1758C90.0752 20.1758 89.5449 20.0557 89.0703 19.8154C88.6016 19.5752 88.2002 19.2383 87.8662 18.8047C87.5322 18.3711 87.2744 17.8613 87.0928 17.2754C86.917 16.6895 86.8291 16.0508 86.8291 15.3594V15.1748C86.8291 14.4482 86.917 13.7891 87.0928 13.1973C87.2744 12.5996 87.5293 12.0869 87.8574 11.6592C88.1914 11.2314 88.5957 10.9004 89.0703 10.666C89.5449 10.4316 90.0811 10.3145 90.6787 10.3145C91.3115 10.3145 91.8418 10.4316 92.2695 10.666C92.601 10.8476 92.8867 11.0891 93.1267 11.3904L93.2275 10.4902ZM92.9814 17.3029V13.1996C92.9357 13.1175 92.8859 13.0406 92.832 12.9688C92.6738 12.7578 92.4688 12.5938 92.2168 12.4766C91.9648 12.3594 91.666 12.3008 91.3203 12.3008C90.9863 12.3008 90.6963 12.377 90.4502 12.5293C90.21 12.6758 90.0078 12.8779 89.8438 13.1357C89.6855 13.3936 89.5654 13.6982 89.4834 14.0498C89.4014 14.3955 89.3604 14.7705 89.3604 15.1748V15.3594C89.3604 15.752 89.3984 16.1182 89.4746 16.458C89.5508 16.7979 89.668 17.0996 89.8262 17.3633C89.9902 17.6211 90.1924 17.8232 90.4326 17.9697C90.6787 18.1104 90.9688 18.1807 91.3027 18.1807C91.7656 18.1807 92.1436 18.084 92.4365 17.8906C92.6613 17.7378 92.8429 17.5419 92.9814 17.3029ZM102.632 17.3721C102.632 17.1904 102.579 17.0264 102.474 16.8799C102.368 16.7334 102.172 16.5986 101.885 16.4756C101.604 16.3467 101.196 16.2295 100.663 16.124C100.183 16.0186 99.7344 15.8867 99.3184 15.7285C98.9082 15.5645 98.5508 15.3682 98.2461 15.1396C97.9473 14.9111 97.7129 14.6416 97.543 14.3311C97.373 14.0146 97.2881 13.6543 97.2881 13.25C97.2881 12.8516 97.373 12.4766 97.543 12.125C97.7188 11.7734 97.9678 11.4629 98.29 11.1934C98.6182 10.918 99.0166 10.7041 99.4854 10.5518C99.96 10.3936 100.493 10.3145 101.085 10.3145C101.911 10.3145 102.62 10.4463 103.212 10.71C103.81 10.9736 104.267 11.3369 104.583 11.7998C104.905 12.2568 105.066 12.7783 105.066 13.3643H102.535C102.535 13.1182 102.482 12.8984 102.377 12.7051C102.277 12.5059 102.119 12.3506 101.902 12.2393C101.691 12.1221 101.416 12.0635 101.076 12.0635C100.795 12.0635 100.552 12.1133 100.347 12.2129C100.142 12.3066 99.9834 12.4355 99.8721 12.5996C99.7666 12.7578 99.7139 12.9336 99.7139 13.127C99.7139 13.2734 99.7432 13.4053 99.8018 13.5225C99.8662 13.6338 99.9688 13.7363 100.109 13.8301C100.25 13.9238 100.432 14.0117 100.654 14.0938C100.883 14.1699 101.164 14.2402 101.498 14.3047C102.184 14.4453 102.796 14.6299 103.335 14.8584C103.874 15.0811 104.302 15.3857 104.618 15.7725C104.935 16.1533 105.093 16.6543 105.093 17.2754C105.093 17.6973 104.999 18.084 104.812 18.4355C104.624 18.7871 104.354 19.0947 104.003 19.3584C103.651 19.6162 103.229 19.8184 102.737 19.9648C102.251 20.1055 101.703 20.1758 101.094 20.1758C100.209 20.1758 99.459 20.0176 98.8438 19.7012C98.2344 19.3848 97.7715 18.9834 97.4551 18.4971C97.1445 18.0049 96.9893 17.501 96.9893 16.9854H99.3887C99.4004 17.3311 99.4883 17.6094 99.6523 17.8203C99.8223 18.0312 100.036 18.1836 100.294 18.2773C100.558 18.3711 100.842 18.418 101.146 18.418C101.475 18.418 101.747 18.374 101.964 18.2861C102.181 18.1924 102.345 18.0693 102.456 17.917C102.573 17.7588 102.632 17.5771 102.632 17.3721ZM111.395 10.4902V12.2832H109.76V17.1348C109.76 17.4102 109.795 17.6211 109.865 17.7676C109.941 17.9141 110.053 18.0166 110.199 18.0752C110.346 18.1279 110.53 18.1543 110.753 18.1543C110.911 18.1543 111.052 18.1484 111.175 18.1367C111.304 18.1191 111.412 18.1016 111.5 18.084L111.509 19.9473C111.292 20.0176 111.058 20.0732 110.806 20.1143C110.554 20.1553 110.275 20.1758 109.971 20.1758C109.414 20.1758 108.928 20.085 108.512 19.9033C108.102 19.7158 107.785 19.417 107.562 19.0068C107.34 18.5967 107.229 18.0576 107.229 17.3896V12.2832H105.857V10.4902H107.229V8.14355H109.76V10.4902H111.395ZM115.174 20H116.018H116.782H117.617L120.825 10.4902H118.18L116.403 16.947L114.62 10.4902H111.966L115.174 20ZM127.426 7.20312L122.732 21.0986H120.852L125.545 7.20312H127.426ZM136.355 15.5264V15.2275V13.8389V13.5312L128.7 10.3145V12.6787L133.827 14.5103L128.7 16.3789V18.7432L136.355 15.5264ZM13.8728 45.4H18.3128V57H21.0728V45.4H25.5128V43H13.8728V45.4ZM39.9617 43H37.2017V57H39.9617V43ZM55.1063 43H52.6463V57H55.3462V48.14L58.9062 54.46H59.6663C59.9329 54.46 60.1663 54.3867 60.3662 54.24C60.5796 54.08 60.7863 53.82 60.9863 53.46L63.9263 48.14V57H66.6263V43H64.1663L59.6862 51.32L55.1063 43ZM79.6511 56.48C80.0111 56.8267 80.4778 57 81.0511 57H89.7911V54.6H81.8711V51.04H89.1911V48.64H81.8711V45.4H89.7911V43H79.1111V55.12C79.1111 55.68 79.2911 56.1333 79.6511 56.48ZM105.33 55.72C105.663 56.5733 106.216 57 106.99 57H108.29L113.67 43H110.81L107.11 53.5H107.07L103.39 43H100.51L105.33 55.72ZM124.874 57L126.114 53.74H131.354L132.574 57H135.454L130.474 44.2C130.167 43.4 129.581 43 128.714 43H127.474L121.994 57H124.874ZM128.754 46.38L130.614 51.42H126.854L128.734 46.38H128.754ZM148.52 56.54C149.267 56.9533 150.133 57.16 151.12 57.16H153.24C154.227 57.16 155.1 56.9533 155.86 56.54C156.62 56.1133 157.207 55.52 157.62 54.76C158.033 54 158.24 53.12 158.24 52.12V43H155.48V52.04C155.48 52.84 155.273 53.4867 154.86 53.98C154.447 54.4733 153.907 54.72 153.24 54.72H151.12C150.467 54.72 149.933 54.4733 149.52 53.98C149.12 53.4867 148.92 52.84 148.92 52.04V43H146.16V52.12C146.16 53.12 146.367 54 146.78 54.76C147.193 55.52 147.773 56.1133 148.52 56.54ZM171.155 56.5C171.515 56.8333 171.988 57 172.575 57H180.995V54.6H173.395V43H170.635V55.14C170.635 55.7 170.808 56.1533 171.155 56.5ZM189.478 45.4H193.918V57H196.678V45.4H201.118V43H189.478V45.4Z" fill="url(#paint0_linear_1_33)"/>
<defs>
<linearGradient id="paint0_linear_1_33" x1="53.6512" y1="-7.17438" x2="239.046" y2="105.566" gradientUnits="userSpaceOnUse">
<stop offset="0.251308" stop-color="#996DFF"/>
<stop offset="0.623787" stop-color="#FF876E"/>
<stop offset="1" stop-color="#FFD072"/>
</linearGradient>
</defs>
</svg>
