<svg width="210" height="20" viewBox="0 0 210 20" fill="none" xmlns="http://www.w3.org/2000/svg">
<path fill-rule="evenodd" clip-rule="evenodd" d="M0 9.99992C0 4.47712 4.47712 0 9.99992 0H48.1287C52.6088 0 56.4008 2.94618 57.673 7.00678C57.8795 7.66606 58.4614 8.16325 59.1523 8.16325C59.8432 8.16325 60.4252 7.66608 60.6317 7.0068C61.9039 2.94627 65.6959 0.00016285 70.1759 0.00016285H200C205.523 0.00016285 210 4.47728 210 10.0001C210 15.5229 205.523 20 200.001 20H70.1759C65.6958 20 61.9038 17.0538 60.6316 12.9932C60.4251 12.3339 59.8432 11.8367 59.1523 11.8367C58.4614 11.8367 57.8795 12.3339 57.6729 12.9931C56.4008 17.0537 52.6088 19.9998 48.1287 19.9998H9.99991C4.4771 19.9998 0 15.5227 0 9.99992ZM40.3623 14.7935L43.752 4.75781H42.3936L39.0039 14.7935H40.3623ZM32.1738 8.42676V7.13184H30.9932V5.43701H29.165V7.13184H28.1748V8.42676H29.165V12.1147C29.165 12.5972 29.2454 12.9865 29.4062 13.2827C29.5671 13.5789 29.7956 13.7948 30.0918 13.9302C30.3923 14.0614 30.7435 14.127 31.1455 14.127C31.3656 14.127 31.5666 14.1121 31.7485 14.0825C31.9305 14.0529 32.0998 14.0127 32.2563 13.9619L32.25 12.6162C32.1865 12.6289 32.1082 12.6416 32.0151 12.6543C31.9263 12.6628 31.8247 12.667 31.7104 12.667C31.5496 12.667 31.4163 12.6479 31.3105 12.6099C31.2048 12.5675 31.1243 12.4935 31.0693 12.3877C31.0186 12.2819 30.9932 12.1296 30.9932 11.9307V8.42676H32.1738ZM7.70996 9.55029V9.32812L13.1943 7.00488V8.71875L9.55458 10.0558L13.1943 11.3721V13.0923L7.70996 10.769V10.5469V9.55029ZM20.71 7.13184H19.0532L18.9804 7.78194C18.8071 7.56435 18.6007 7.38997 18.3613 7.25879C18.0524 7.08952 17.6694 7.00488 17.2124 7.00488C16.7808 7.00488 16.3936 7.08952 16.0508 7.25879C15.708 7.42806 15.416 7.66716 15.1748 7.97607C14.9378 8.28499 14.7537 8.65527 14.6226 9.08691C14.4956 9.51432 14.4321 9.9904 14.4321 10.5151V10.6484C14.4321 11.1478 14.4956 11.609 14.6226 12.0322C14.7537 12.4554 14.9399 12.8236 15.1812 13.1367C15.4224 13.4499 15.7122 13.6932 16.0508 13.8667C16.3936 14.0402 16.7765 14.127 17.1997 14.127C17.6229 14.127 17.9868 14.0423 18.2915 13.873C18.512 13.7522 18.7067 13.5968 18.8755 13.407V13.7842C18.8755 14.11 18.8141 14.3872 18.6914 14.6157C18.5687 14.8485 18.3931 15.0241 18.1646 15.1426C17.936 15.2653 17.6567 15.3267 17.3267 15.3267C16.9881 15.3267 16.6792 15.2568 16.3999 15.1172C16.1206 14.9818 15.8752 14.7913 15.6636 14.5459L14.8574 15.625C15.0521 15.8704 15.2933 16.0736 15.5811 16.2344C15.873 16.3952 16.1777 16.5137 16.4951 16.5898C16.8167 16.666 17.1214 16.7041 17.4092 16.7041C18.0651 16.7041 18.6406 16.5898 19.1357 16.3613C19.6309 16.137 20.0159 15.8049 20.291 15.3647C20.5703 14.9289 20.71 14.3978 20.71 13.7715V7.13184ZM18.8755 9.08858V12.0521C18.7754 12.2247 18.6442 12.3662 18.4819 12.4766C18.2703 12.6162 17.9974 12.686 17.6631 12.686C17.4219 12.686 17.2124 12.6353 17.0347 12.5337C16.8612 12.4279 16.7152 12.2819 16.5967 12.0957C16.4824 11.9053 16.3978 11.6873 16.3428 11.4419C16.2878 11.1965 16.2603 10.932 16.2603 10.6484V10.5151C16.2603 10.2231 16.2899 9.95231 16.3491 9.70264C16.4084 9.44873 16.4951 9.22868 16.6094 9.04248C16.7279 8.85628 16.8739 8.71029 17.0474 8.60449C17.2251 8.49447 17.4346 8.43945 17.6758 8.43945C17.9255 8.43945 18.1413 8.48177 18.3232 8.56641C18.5052 8.65104 18.6533 8.76953 18.7676 8.92188C18.8065 8.97376 18.8425 9.02933 18.8755 9.08858ZM25.8452 12.1021C25.8452 11.9709 25.8071 11.8524 25.731 11.7466C25.6548 11.6408 25.513 11.5435 25.3057 11.4546C25.1025 11.3615 24.8084 11.2769 24.4233 11.2007C24.0763 11.1245 23.7526 11.0293 23.4521 10.915C23.1559 10.7965 22.8978 10.6548 22.6777 10.4897C22.4619 10.3247 22.2926 10.13 22.1699 9.90576C22.0472 9.67725 21.9858 9.41699 21.9858 9.125C21.9858 8.83724 22.0472 8.56641 22.1699 8.3125C22.2969 8.05859 22.4767 7.83431 22.7095 7.63965C22.9465 7.44075 23.2342 7.2863 23.5728 7.17627C23.9155 7.06201 24.3006 7.00488 24.728 7.00488C25.3247 7.00488 25.8368 7.1001 26.2642 7.29053C26.6958 7.48096 27.0259 7.74333 27.2544 8.07764C27.4871 8.40771 27.6035 8.78434 27.6035 9.20752H25.7754C25.7754 9.02979 25.7373 8.87109 25.6611 8.73145C25.5892 8.58757 25.4749 8.47542 25.3184 8.39502C25.166 8.31038 24.9671 8.26807 24.7217 8.26807C24.5186 8.26807 24.3429 8.30404 24.1948 8.37598C24.0467 8.44368 23.9325 8.53678 23.8521 8.65527C23.7759 8.76953 23.7378 8.89648 23.7378 9.03613C23.7378 9.14193 23.759 9.23714 23.8013 9.32178C23.8478 9.40218 23.9219 9.47624 24.0234 9.54395C24.125 9.61165 24.2562 9.67513 24.417 9.73438C24.582 9.78939 24.7852 9.84017 25.0264 9.88672C25.5215 9.98828 25.9637 10.1216 26.353 10.2866C26.7423 10.4474 27.0513 10.6675 27.2798 10.9468C27.5083 11.2218 27.6226 11.5837 27.6226 12.0322C27.6226 12.3369 27.5548 12.6162 27.4194 12.8701C27.284 13.124 27.0894 13.3462 26.8354 13.5366C26.5815 13.7228 26.2769 13.8688 25.9214 13.9746C25.5702 14.0762 25.1745 14.127 24.7344 14.127C24.0954 14.127 23.5537 14.0127 23.1094 13.7842C22.6693 13.5557 22.335 13.2658 22.1064 12.9146C21.8822 12.5591 21.77 12.1952 21.77 11.8228H23.5029C23.5114 12.0724 23.5749 12.2734 23.6934 12.4258C23.8161 12.5781 23.9705 12.6882 24.1567 12.7559C24.3472 12.8236 24.5524 12.8574 24.7725 12.8574C25.0094 12.8574 25.2062 12.8257 25.3628 12.7622C25.5194 12.6945 25.6379 12.6056 25.7183 12.4956C25.8029 12.3813 25.8452 12.2502 25.8452 12.1021ZM34.9033 14H35.5127H36.0649H36.668L38.9849 7.13184H37.0742L35.7908 11.7951L34.5034 7.13184H32.5864L34.9033 14ZM50.2012 10.769V10.5532V9.55029V9.32812L44.6724 7.00488V8.7124L48.375 10.0352L44.6724 11.3848V13.0923L50.2012 10.769ZM72.569 7.88H69.461V6.2H77.609V7.88H74.501V16H72.569V7.88ZM85.7912 6.2H87.7232V16H85.7912V6.2ZM98.3244 6.2H96.6024V16H98.4924V9.798L100.984 14.222H101.516C101.703 14.222 101.866 14.1707 102.006 14.068C102.156 13.956 102.3 13.774 102.44 13.522L104.498 9.798V16H106.388V6.2H104.666L101.53 12.024L98.3244 6.2ZM116.486 16C116.084 16 115.758 15.8787 115.506 15.636C115.254 15.3933 115.128 15.076 115.128 14.684V6.2H122.604V7.88H117.06V10.148H122.184V11.828H117.06V14.32H122.604V16H116.486ZM133.481 15.104C133.714 15.7013 134.101 16 134.643 16H135.553L139.319 6.2H137.317L134.727 13.55H134.699L132.123 6.2H130.107L133.481 15.104ZM148.03 13.718L147.162 16H145.146L148.982 6.2H149.85C150.457 6.2 150.867 6.48 151.082 7.04L154.568 16H152.552L151.698 13.718H148.03ZM151.18 12.094L149.878 8.566H149.864L148.548 12.094H151.18ZM163.714 15.678C164.237 15.9673 164.843 16.112 165.534 16.112H167.018C167.709 16.112 168.32 15.9673 168.852 15.678C169.384 15.3793 169.795 14.964 170.084 14.432C170.373 13.9 170.518 13.284 170.518 12.584V6.2H168.586V12.528C168.586 13.088 168.441 13.5407 168.152 13.886C167.863 14.2313 167.485 14.404 167.018 14.404H165.534C165.077 14.404 164.703 14.2313 164.414 13.886C164.134 13.5407 163.994 13.088 163.994 12.528V6.2H162.062V12.584C162.062 13.284 162.207 13.9 162.496 14.432C162.785 14.964 163.191 15.3793 163.714 15.678ZM180.552 16C180.142 16 179.81 15.8833 179.558 15.65C179.316 15.4073 179.194 15.09 179.194 14.698V6.2H181.126V14.32H186.446V16H180.552ZM192.385 7.88H195.493V16H197.425V7.88H200.533V6.2H192.385V7.88Z" fill="url(#paint0_linear_1_59)"/>
<defs>
<linearGradient id="paint0_linear_1_59" x1="3.47954" y1="-6.6526" x2="236.326" y2="-6.6526" gradientUnits="userSpaceOnUse">
<stop offset="0.251308" stop-color="#996DFF"/>
<stop offset="0.623787" stop-color="#FF876E"/>
<stop offset="1" stop-color="#FFD072"/>
</linearGradient>
</defs>
</svg>
